<svg width="96" height="96" viewBox="0 0 96 96" fill="none" xmlns="http://www.w3.org/2000/svg">
<path d="M57.3022 57.3896C56.8241 57.7818 56.7555 58.4884 57.1494 58.9645C57.5433 59.4407 58.2528 59.509 58.7309 59.1167C59.209 58.7245 59.2775 58.0179 58.8836 57.5418C58.4897 57.0656 57.7804 56.9973 57.3022 57.3896ZM58.5308 57.8313C58.7644 58.1137 58.7237 58.5327 58.4402 58.7654C58.1566 58.998 57.7358 58.9575 57.5022 58.6751C57.2687 58.3927 57.3093 57.9737 57.5929 57.741C57.8765 57.5083 58.2972 57.5488 58.5308 57.8313Z" fill="#161616"/>
<path d="M67.9826 34.9079L68.9159 33.5227L70.9038 34.851L71.0612 34.7769L73.7786 36.6839L74.1515 36.1344L75.2486 36.8675L76.863 34.4705L75.775 33.7434L75.9513 33.484L73.3691 31.6939L73.3848 31.1624L71.3995 29.8361L72.0434 28.8807L69.1307 26.9347L68.3085 28.1557L62.176 24.4297L47.9073 42.1332L33.6385 24.4297L27.5062 28.1557L26.6836 26.9347L23.7713 28.8807L24.4149 29.8361L22.4299 31.1624L22.4457 31.6939L19.8634 33.484L20.0395 33.7434L18.9513 34.4705L20.566 36.8675L21.6631 36.1344L22.0362 36.6839L24.7534 34.7769L24.9106 34.851L26.8985 33.5227L27.8317 34.9079L30.744 32.9618L30.0069 31.8677L32.6166 30.2086L45.0952 45.6223L42.8368 48.4243L42.1711 47.8783L41.337 47.1939C41.4829 46.8515 41.3938 46.44 41.0912 46.1918L40.6123 45.7989C40.2441 45.4968 39.6977 45.5494 39.3943 45.9161L37.505 48.2003C37.2016 48.567 37.2544 49.1112 37.6227 49.4134L38.1015 49.8062C38.3948 50.0468 38.8007 50.0617 39.1072 49.8729L39.9496 50.564L40.6052 51.1018L39.5267 52.408L38.87 51.8692L38.0359 51.1849C38.1818 50.8425 38.0927 50.431 37.7901 50.1827L37.3112 49.7899C36.943 49.4878 36.3966 49.5404 36.0932 49.9071L34.2039 52.1912C33.9006 52.558 33.9533 53.1022 34.3216 53.4043L34.8005 53.7972C35.0938 54.0377 35.4996 54.0526 35.8062 53.8638L36.6486 54.5549L37.3076 55.0956L37.2649 55.1473C36.5411 55.2701 35.8565 55.6413 35.3541 56.2486C35.1807 56.4582 35.0391 56.6837 34.9287 56.919C29.4326 61.8476 25.183 69.4481 24.6609 70.4029L22.5 70.7736L20.7985 73.1021L21.3576 73.5534L21.0597 73.9138L20.6876 73.6081L19.6288 74.8881L20.0009 75.1938L19.0663 76.3235C18.889 76.5375 18.9199 76.8556 19.1351 77.0325L20.0802 77.8078C20.2955 77.9847 20.6147 77.9534 20.7921 77.7395L21.7266 76.6097L22.0986 76.9147L23.1574 75.6347L22.7854 75.3297L23.0945 74.9557L23.3608 75.1704L25.0684 72.84L25.9051 72.6338L25.8624 73.491L23.8921 75.6068L24.3415 75.9814L24.0337 76.3534L23.6615 76.0484L22.6027 77.3284L22.9748 77.6334L22.0403 78.7632C21.863 78.9778 21.8939 79.2959 22.1091 79.4721L23.0542 80.2481C23.2694 80.4243 23.5887 80.3938 23.766 80.1791L24.7006 79.0494L25.0726 79.3544L26.1314 78.0744L25.7594 77.7694L26.0561 77.4104L26.4216 77.7154L28.3904 75.6061L28.342 73.4227C29.1799 72.7294 35.8423 67.1138 39.6532 60.8219L39.6453 60.8171C39.8633 60.6614 40.0649 60.4758 40.2433 60.2601C40.5757 59.8582 40.7904 59.3981 40.8931 58.9211C41.8536 58.3728 41.9026 56.9002 41.8985 56.5177L47.9072 49.0958L53.9158 56.5177C53.9117 56.9002 53.9608 58.3728 54.9212 58.9211C55.024 59.3981 55.2387 59.8582 55.571 60.2601C55.7494 60.4758 55.9511 60.6614 56.1691 60.8171L56.1611 60.8219C59.9721 67.1138 66.6347 72.7294 67.4726 73.4227L67.4243 75.6061L69.3926 77.7154L69.7583 77.4104L70.0548 77.7694L69.6832 78.0744L70.7418 79.3544L71.1141 79.0494L72.0486 80.1791C72.2256 80.3938 72.5449 80.4243 72.7604 80.2481L73.7054 79.4721C73.9203 79.2959 73.9516 78.9778 73.774 78.7632L72.8395 77.6334L73.2117 77.3284L72.1531 76.0484L71.7808 76.3534L71.4726 75.9814L71.9219 75.6068L69.9523 73.491L69.9092 72.6338L70.7457 72.84L72.4535 75.1704L72.7199 74.9557L73.0288 75.3297L72.6566 75.6347L73.7159 76.9147L74.0875 76.6097L75.022 77.7395C75.1996 77.9534 75.519 77.9847 75.7338 77.8078L76.6795 77.0325C76.8943 76.8556 76.925 76.5382 76.748 76.3235L75.8135 75.1938L76.1857 74.8881L75.1265 73.6081L74.7549 73.9138L74.4564 73.5534L75.0161 73.1021L73.3142 70.7736L71.1533 70.4029C70.6315 69.4481 66.382 61.8476 60.8856 56.919C60.7753 56.6836 60.6337 56.4582 60.4603 56.2486C59.9579 55.6412 59.2732 55.2701 58.5494 55.1473L58.5068 55.0956L59.1658 54.5549L60.0082 53.8638C60.3147 54.0526 60.7206 54.0377 61.0139 53.7972L61.4927 53.4043C61.861 53.1022 61.9138 52.5579 61.6104 52.1912L59.7211 49.9071C59.4177 49.5403 58.8713 49.4877 58.5031 49.7899L58.0242 50.1827C57.7216 50.431 57.6325 50.8425 57.7784 51.1849L56.9443 51.8692L56.2876 52.408L55.2091 51.1018L55.8647 50.564L56.7071 49.8729C57.0136 50.0617 57.4195 50.0468 57.7128 49.8062L58.1917 49.4134C58.5599 49.1112 58.6127 48.567 58.3094 48.2003L56.4201 45.9161C56.1167 45.5494 55.5703 45.4967 55.202 45.7989L54.7231 46.1918C54.4206 46.44 54.3314 46.8515 54.4774 47.1939L53.6432 47.8783L52.9776 48.4243L50.7192 45.6223L63.1978 30.2086L65.8073 31.8677L65.0704 32.9618L67.9826 34.9079ZM76.2288 34.5951L75.1239 36.2359L74.4153 35.7625L75.5203 34.1218L76.2288 34.5951ZM73.3528 32.2374L75.3198 33.6011L74.7346 34.4625L73.3162 33.4564L73.3528 32.2374ZM74.4786 34.8398L73.661 36.0444L71.5359 34.5532L73.0608 33.8342L74.4786 34.8398ZM72.9204 31.4004L72.8597 33.4252L70.943 34.3289L69.1764 33.1485L71.1506 30.218L72.9204 31.4004ZM22.4619 32.2374L22.4981 33.4565L21.0797 34.4626L20.4948 33.6011L22.4619 32.2374ZM20.6909 36.2358L19.5856 34.595L20.294 34.1217L21.3993 35.7624L20.6909 36.2358ZM22.1537 36.0444L21.3359 34.8398L22.7536 33.8342L24.2786 34.5531L22.1537 36.0444ZM24.8715 34.3289L22.9545 33.4253L22.8943 31.4004L24.6637 30.2181L26.6379 33.1486L24.8715 34.3289ZM30.1096 32.8374L27.9565 34.2762L24.4056 29.0052L26.5586 27.5665L30.1096 32.8374ZM38.9667 49.3995C38.8237 49.5725 38.5659 49.5973 38.3922 49.4548L37.9133 49.0619C37.7396 48.9194 37.7147 48.6627 37.8578 48.4897L39.7471 46.2056C39.8902 46.0325 40.1479 46.0078 40.3216 46.1503L40.8005 46.5431C40.9743 46.6856 40.9991 46.9423 40.8561 47.1153L38.9667 49.3995ZM39.8874 49.9231L39.4337 49.5509L41.0739 47.568L41.5276 47.9401L39.8874 49.9231ZM40.2403 50.2126L41.8804 48.2296L42.5473 48.7767L40.8965 50.7492L40.8956 50.7502L40.2403 50.2126ZM35.6657 53.3905C35.5226 53.5635 35.2649 53.5883 35.0912 53.4457L34.6123 53.0529C34.4386 52.9104 34.4137 52.6537 34.5568 52.4807L36.4461 50.1965C36.5892 50.0235 36.847 49.9987 37.0207 50.1412L37.4995 50.5341C37.6732 50.6766 37.6981 50.9333 37.555 51.1063L35.6657 53.3905ZM36.5864 53.9141L36.1327 53.5419L37.7729 51.559L38.2266 51.9311L36.5864 53.9141ZM36.9392 54.2036L38.5793 52.2206L39.2363 52.7596L37.5979 54.744L36.9392 54.2036ZM20.4393 77.45C20.4222 77.4702 20.3916 77.4734 20.3709 77.4565L19.4258 76.6812C19.4051 76.6643 19.4021 76.6338 19.4192 76.613L20.3537 75.4832L21.3738 76.3203L20.4393 77.45ZM22.0365 76.2734L20.2723 74.8263L20.7499 74.2494L22.514 75.6965L22.0365 76.2734ZM22.4327 75.0396L21.4126 74.2032L21.7128 73.8403L22.7395 74.6689L22.4327 75.0396ZM23.4132 79.8897C23.3962 79.9105 23.3656 79.9131 23.3449 79.8962L22.3998 79.1209C22.3791 79.104 22.3761 79.0734 22.3932 79.0526L23.3277 77.9229L24.3478 78.7599L23.4132 79.8897ZM25.0105 78.7138L23.2463 77.266L23.7238 76.689L25.488 78.1362L25.0105 78.7138ZM25.4066 77.4799L24.3865 76.6429L24.6921 76.2734L25.7056 77.1183L25.4066 77.4799ZM27.967 73.1404L27.8801 73.2107L27.9294 75.4312L26.3824 77.0884L24.5545 75.5652L26.3108 73.679L26.3923 72.0445L24.7973 72.4373L23.2751 74.5154L21.4236 73.0201L22.7604 71.1912L24.9585 70.8139L25.0111 70.7151C25.0535 70.6357 29.1682 62.9724 34.6688 57.7785C34.5079 58.8402 34.894 59.9581 35.7849 60.6891C36.6752 61.4195 37.8499 61.5831 38.8649 61.2235C34.7953 67.5782 28.037 73.0839 27.967 73.1404ZM39.8906 59.9705C38.9404 61.1192 37.229 61.284 36.0755 60.3376C34.9221 59.3914 34.7567 57.6868 35.7069 56.5381C36.657 55.3894 38.3684 55.2246 39.5219 56.1709C40.6753 57.1173 40.8407 58.8217 39.8906 59.9705ZM41.4353 56.3646L41.4397 56.4513C41.4403 56.4652 41.4892 57.6395 40.9643 58.2713C40.9684 57.3558 40.5758 56.4457 39.8126 55.8195C39.2533 55.3607 38.5818 55.1261 37.9081 55.1036L39.8908 52.7066L39.8796 52.6975L40.9581 51.3913L40.9703 51.4014L43.1918 48.7156L43.1896 48.7138L45.3889 45.9851L47.6137 48.7331L41.4353 56.3646ZM73.4213 79.0526C73.4383 79.0734 73.4351 79.104 73.4148 79.1209L72.4698 79.8962C72.4489 79.9131 72.4182 79.9105 72.4013 79.8897L71.4667 78.7599L72.4868 77.9229L73.4213 79.0526ZM72.0904 76.689L72.5684 77.266L70.8039 78.7138L70.3265 78.1362L72.0904 76.689ZM70.4081 77.4799L70.109 77.1183L71.1226 76.2734L71.4282 76.6429L70.4081 77.4799ZM76.3954 76.613C76.4123 76.6338 76.4091 76.6643 76.3888 76.6812L75.4439 77.4565C75.423 77.4734 75.3923 77.4702 75.3753 77.45L74.4408 76.3203L75.4608 75.4832L76.3954 76.613ZM75.0644 74.2487L75.5425 74.8263L73.7779 76.2734L73.3005 75.6965L75.0644 74.2487ZM73.3822 75.0396L73.0752 74.6689L74.1018 73.8403L74.4016 74.2032L73.3822 75.0396ZM61.1457 57.7785C66.6465 62.9724 70.7608 70.6357 70.8032 70.7151L70.8561 70.8139L73.0543 71.1912L74.3911 73.0201L72.5397 74.5154L71.0174 72.4373L69.422 72.0445L69.5036 73.679L71.2604 75.5652L69.4324 77.0884L67.8853 75.4312L67.9343 73.2107L67.8475 73.1404C67.7776 73.0839 61.0193 67.5782 56.9497 61.2235C57.9647 61.5831 59.1394 61.4195 60.0297 60.6891C60.9206 59.9581 61.3067 58.8402 61.1457 57.7785ZM60.1076 56.5381C61.0578 57.6868 60.8924 59.3913 59.739 60.3376C58.5855 61.284 56.8741 61.1192 55.9239 59.9705C54.9738 58.8217 55.1391 57.1173 56.2926 56.1709C57.4461 55.2247 59.1575 55.3894 60.1076 56.5381ZM58.3151 50.5341L58.7939 50.1413C58.9677 49.9988 59.2254 50.0236 59.3685 50.1966L61.2578 52.4807C61.4009 52.6537 61.376 52.9105 61.2023 53.053L60.7234 53.4458C60.5497 53.5883 60.2919 53.5635 60.1488 53.3905L58.2596 51.1064C58.1165 50.9334 58.1414 50.6766 58.3151 50.5341ZM58.0417 51.559L59.6818 53.5419L59.2282 53.9141L57.588 51.9311L58.0417 51.559ZM57.2351 52.2206L58.8753 54.2036L58.2166 54.744L56.5782 52.7597L57.2351 52.2206ZM55.014 46.5431L55.4929 46.1503C55.6666 46.0078 55.9244 46.0325 56.0675 46.2056L57.9567 48.4897C58.0998 48.6627 58.0749 48.9194 57.9012 49.0619L57.4223 49.4548C57.2486 49.5973 56.9908 49.5725 56.8478 49.3995L54.9585 47.1153C54.8154 46.9423 54.8403 46.6856 55.014 46.5431ZM54.7407 47.568L56.3808 49.5509L55.9271 49.9231L54.287 47.9401L54.7407 47.568ZM53.9341 48.2296L55.5743 50.2126L54.919 50.7502L54.9182 50.7492L53.2673 48.7767L53.9341 48.2296ZM52.625 48.7138L52.6228 48.7156L54.8442 51.4014L54.8565 51.3913L55.935 52.6975L55.9238 52.7066L57.9064 55.1036C57.2328 55.1261 56.5613 55.3607 56.002 55.8195C55.2388 56.4457 54.8461 57.3558 54.8502 58.2713C54.3254 57.6395 54.3742 56.4652 54.3749 56.4513L54.3792 56.3646L48.201 48.7331L47.9073 48.3704L45.6819 45.6216L45.3882 45.2588L32.7154 29.6055L29.7645 31.4817L27.7711 28.5281L33.5335 25.0268L47.6142 42.4967L47.9073 42.8604L50.1327 45.6215L50.4257 45.985L52.625 48.7138ZM63.099 29.6055L50.4264 45.2588L48.2003 42.4968L62.281 25.0268L68.0434 28.5282L66.0502 31.4817L63.099 29.6055ZM69.2561 27.5664L71.4093 29.0051L67.8579 34.2761L65.7048 32.8374L69.2561 27.5664Z" fill="#161616"/>
<path d="M68.7169 71.3686C69.1688 70.9979 69.2334 70.3306 68.8612 69.8805C68.4889 69.4311 67.8189 69.366 67.3676 69.7368C66.9157 70.1075 66.8511 70.7748 67.2233 71.2249C67.5949 71.6743 68.2649 71.7387 68.7169 71.3686ZM67.6582 70.088C67.9149 69.8772 68.2963 69.9143 68.5085 70.1699C68.7201 70.4262 68.6835 70.806 68.4262 71.0168C68.1689 71.2281 67.7875 71.1911 67.576 70.9355C67.3644 70.6792 67.4009 70.2994 67.6582 70.088Z" fill="#161616"/>
<path d="M60.3398 62.545C60.6719 62.9466 61.2702 63.0041 61.6734 62.6733C62.0766 62.3425 62.1344 61.7467 61.8022 61.3452C61.4701 60.9436 60.8718 60.886 60.4686 61.2168C60.0654 61.5476 60.0076 62.1435 60.3398 62.545ZM60.7594 61.5682C60.968 61.3971 61.2776 61.4268 61.4495 61.6347C61.6213 61.8425 61.5914 62.1507 61.3828 62.3219C61.1741 62.4931 60.8646 62.4633 60.6926 62.2555C60.5207 62.0477 60.5507 61.7394 60.7594 61.5682Z" fill="#161616"/>
<path d="M38.515 57.3896C38.0369 56.9973 37.3275 57.0656 36.9336 57.5418C36.5397 58.0179 36.6082 58.7245 37.0863 59.1167C37.5645 59.509 38.2739 59.4407 38.6678 58.9645C39.0617 58.4884 38.9931 57.7818 38.515 57.3896ZM38.315 58.675C38.0814 58.9574 37.6607 58.998 37.3771 58.7653C37.0935 58.5327 37.0529 58.1137 37.2865 57.8312C37.52 57.5488 37.9408 57.5083 38.2244 57.7409C38.5079 57.9736 38.5486 58.3927 38.315 58.675Z" fill="#161616"/>
<path d="M28.4503 69.7368C27.9987 69.366 27.3285 69.4311 26.9565 69.8805C26.5845 70.3306 26.6492 70.9979 27.1009 71.3686C27.5526 71.7387 28.2227 71.6743 28.5947 71.2242C28.9667 70.7748 28.902 70.1075 28.4503 69.7368ZM28.2419 70.9348C28.0301 71.1911 27.6486 71.2281 27.3915 71.0168C27.1344 70.806 27.0976 70.4262 27.3094 70.1699C27.5212 69.9143 27.9026 69.8772 28.1597 70.088C28.4168 70.2994 28.4537 70.6792 28.2419 70.9348Z" fill="#161616"/>
<path d="M35.3482 61.2168C34.945 60.886 34.3467 60.9436 34.0146 61.3452C33.6824 61.7467 33.7402 62.3425 34.1434 62.6733C34.5466 63.0041 35.1449 62.9466 35.4771 62.545C35.8092 62.1435 35.7514 61.5476 35.3482 61.2168ZM35.1242 62.2555C34.9523 62.4633 34.6428 62.4931 34.4341 62.3219C34.2255 62.1507 34.1956 61.8425 34.3674 61.6347C34.5393 61.4268 34.8489 61.3971 35.0575 61.5682C35.2662 61.7394 35.2962 62.0477 35.1242 62.2555Z" fill="#161616"/>
<path d="M38.378 14.1752C39.4121 13.5379 39.9638 12.5038 39.8306 11.4142C39.719 10.5008 39.2757 9.80001 38.5534 9.39045C37.7318 8.87825 36.6884 8.73185 35.17 8.91611C34.1762 9.03656 33.1248 9.25868 32.4262 9.49595L32.3271 9.52964L33.7476 21.1526L33.8601 21.1544C33.9084 21.1552 33.9633 21.1557 34.0252 21.1557C34.4553 21.1557 35.209 21.1318 36.2272 21.0084C38.1689 20.773 39.4692 20.2443 40.205 19.3895C40.804 18.6506 41.0492 17.7965 40.9336 16.8509C40.7349 15.2263 39.4962 14.4157 38.378 14.1752ZM34.2359 10.5398C34.5327 10.4495 34.9331 10.3735 35.4285 10.3134C37.0407 10.1178 37.9301 10.6128 38.0734 11.7843C38.1372 12.3059 37.9782 12.7787 37.6139 13.1516C37.2277 13.5467 36.6353 13.8024 35.9008 13.8915L34.6639 14.0415L34.2359 10.5398ZM38.4352 18.8129C37.9866 19.1824 37.312 19.4308 36.4846 19.5309C35.9738 19.5928 35.6075 19.6219 35.3451 19.6177L34.8336 15.4321L35.9497 15.2967C36.8151 15.1918 38.8533 15.1533 39.0859 17.0574C39.1758 17.7927 38.9569 18.3834 38.4352 18.8129Z" fill="#161616"/>
<path d="M47.0534 20.267L48.8428 20.2685L48.8516 9.86809L52.4369 9.87108L52.4382 8.33157L43.4954 8.32422L43.4941 9.8636L47.0621 9.86659L47.0534 20.267Z" fill="#161616"/>
<path d="M56.4661 15.1819C56.7833 13.7309 57.0992 12.1901 57.344 10.9023C57.4567 11.9854 57.6369 13.2282 57.9091 14.8092L58.9361 20.6889L60.2515 20.8939L63.2205 15.5337C63.932 14.254 64.5414 13.0912 65.0727 11.9995C64.8762 13.3439 64.7091 14.9717 64.5705 16.3203L64.055 21.5564L65.7724 21.8239L66.8866 9.91233L64.7691 9.58277L61.7846 14.9242C61.0442 16.2925 60.5165 17.3428 60.1077 18.2652C60.008 17.2436 59.8428 16.0861 59.5831 14.5814L58.4654 8.60111L56.3479 8.27148L53.6699 19.9392L55.3534 20.2014L56.4661 15.1819Z" fill="#161616"/>
<path d="M48.4788 1.83789H47.3848V3.99496H48.4788V1.83789Z" fill="#161616"/>
<path d="M46.8551 1.84766L45.7617 1.88568L45.8373 4.04146L46.9306 4.00343L46.8551 1.84766Z" fill="#161616"/>
<path d="M45.231 1.91016L44.1396 1.98621L44.2908 4.1381L45.3822 4.06205L45.231 1.91016Z" fill="#161616"/>
<path d="M43.6065 2.03711L42.5186 2.15097L42.7449 4.29618L43.8329 4.18232L43.6065 2.03711Z" fill="#161616"/>
<path d="M41.9936 2.21289L40.9102 2.36456L41.2117 4.50071L42.2951 4.34904L41.9936 2.21289Z" fill="#161616"/>
<path d="M40.382 2.44922L39.3047 2.63836L39.6807 4.76265L40.7581 4.57351L40.382 2.44922Z" fill="#161616"/>
<path d="M38.781 2.73828L37.7109 2.9648L38.1612 5.07464L39.2313 4.84812L38.781 2.73828Z" fill="#161616"/>
<path d="M37.1944 3.08594L36.1328 3.3495L36.6568 5.44251L37.7183 5.17895L37.1944 3.08594Z" fill="#161616"/>
<path d="M35.6201 3.48633L34.5684 3.78661L35.1653 5.86021L36.217 5.55992L35.6201 3.48633Z" fill="#161616"/>
<path d="M34.06 3.94141L33.0195 4.27808L33.6887 6.32967L34.7292 5.993L34.06 3.94141Z" fill="#161616"/>
<path d="M32.5153 4.44922L31.4873 4.82185L32.228 6.84885L33.2561 6.47622L32.5153 4.44922Z" fill="#161616"/>
<path d="M30.9909 5.01172L29.9766 5.41987L30.7879 7.4199L31.8023 7.01177L30.9909 5.01172Z" fill="#161616"/>
<path d="M29.4857 5.62891L28.4863 6.07203L29.3672 8.04249L30.3666 7.59937L29.4857 5.62891Z" fill="#161616"/>
<path d="M28.0057 6.29297L27.0225 6.77063L27.9719 8.70942L28.9553 8.23176L28.0057 6.29297Z" fill="#161616"/>
<path d="M26.5469 7.01172L25.5811 7.52326L26.5979 9.42772L27.5638 8.91617L26.5469 7.01172Z" fill="#161616"/>
<path d="M25.1154 7.78125L24.168 8.32603L25.2509 10.1941L26.1983 9.64928L25.1154 7.78125Z" fill="#161616"/>
<path d="M23.7109 8.59766L22.7832 9.17502L23.931 11.0042L24.8586 10.4269L23.7109 8.59766Z" fill="#161616"/>
<path d="M22.3386 9.46484L21.4316 10.0741L22.6428 11.8623L23.5498 11.2531L22.3386 9.46484Z" fill="#161616"/>
<path d="M20.9964 10.377L20.1113 11.0174L21.3844 12.7625L22.2694 12.122L20.9964 10.377Z" fill="#161616"/>
<path d="M19.6863 11.3359L18.8242 12.0068L20.1578 13.7066L21.0198 13.0358L19.6863 11.3359Z" fill="#161616"/>
<path d="M18.4103 12.3398L17.5723 13.0402L18.9645 14.6926L19.8025 13.9921L18.4103 12.3398Z" fill="#161616"/>
<path d="M17.1694 13.3887L16.3564 14.1176L17.8057 15.7206L18.6186 14.9915L17.1694 13.3887Z" fill="#161616"/>
<path d="M15.9686 14.4785L15.1816 15.2355L16.6863 16.787L17.4732 16.0301L15.9686 14.4785Z" fill="#161616"/>
<path d="M14.8059 15.6133L14.0459 16.397L15.6038 17.8955L16.3638 17.1118L14.8059 15.6133Z" fill="#161616"/>
<path d="M13.6822 16.7832L12.9502 17.5928L14.5597 19.0361L15.2917 18.2265L13.6822 16.7832Z" fill="#161616"/>
<path d="M12.6017 17.9922L11.8984 18.8268L13.5575 20.2133L14.2608 19.3787L12.6017 17.9922Z" fill="#161616"/>
<path d="M11.5642 19.2402L10.8906 20.0988L12.5973 21.4269L13.2709 20.5684L11.5642 19.2402Z" fill="#161616"/>
<path d="M10.5698 20.5215L9.92676 21.4029L11.6789 22.6709L12.322 21.7894L10.5698 20.5215Z" fill="#161616"/>
<path d="M9.62058 21.8359L9.00879 22.7392L10.8043 23.9454L11.4161 23.0421L9.62058 21.8359Z" fill="#161616"/>
<path d="M8.71931 23.1836L8.13965 24.1076L9.97625 25.2506L10.556 24.3267L8.71931 23.1836Z" fill="#161616"/>
<path d="M7.86536 24.5625L7.31836 25.506L9.19395 26.5846L9.74096 25.6411L7.86536 24.5625Z" fill="#161616"/>
<path d="M7.06051 25.9688L6.54688 26.9307L8.4591 27.9435L8.97274 26.9815L7.06051 25.9688Z" fill="#161616"/>
<path d="M6.30774 27.4023L5.82812 28.3817L7.77482 29.3273L8.25443 28.348L6.30774 27.4023Z" fill="#161616"/>
<path d="M5.60021 28.8613L5.15527 29.8566L7.13379 30.7339L7.57872 29.7386L5.60021 28.8613Z" fill="#161616"/>
<path d="M4.95083 30.3457L4.54102 31.3559L6.54919 32.164L6.95905 31.1537L4.95083 30.3457Z" fill="#161616"/>
<path d="M4.34974 31.8496L3.97559 32.8735L6.01086 33.6112L6.38501 32.5873L4.34974 31.8496Z" fill="#161616"/>
<path d="M3.80289 33.375L3.46484 34.4113L5.52481 35.0778L5.86286 34.0415L3.80289 33.375Z" fill="#161616"/>
<path d="M3.30835 34.916L3.00684 35.9634L5.08889 36.5579L5.3904 35.5106L3.30835 34.916Z" fill="#161616"/>
<path d="M2.86816 36.4766L2.60352 37.5337L4.70507 38.0556L4.96971 36.9983L2.86816 36.4766Z" fill="#161616"/>
<path d="M2.48331 38.0508L2.25586 39.1165L4.3743 39.5649L4.60175 38.4992L2.48331 38.0508Z" fill="#161616"/>
<path d="M2.15476 39.6348L1.96484 40.7078L4.0978 41.0822L4.28772 40.0093L2.15476 39.6348Z" fill="#161616"/>
<path d="M1.88373 41.2344L1.73145 42.3134L3.87631 42.6136L4.0286 41.5347L1.88373 41.2344Z" fill="#161616"/>
<path d="M1.66413 42.8359L1.5498 43.9195L3.70377 44.1449L3.8181 43.0614L1.66413 42.8359Z" fill="#161616"/>
<path d="M1.50605 44.4512L1.42969 45.5381L3.59037 45.6887L3.66673 44.6017L1.50605 44.4512Z" fill="#161616"/>
<path d="M1.39951 46.0645L1.36133 47.1534L3.5259 47.2286L3.56408 46.1397L1.39951 46.0645Z" fill="#161616"/>
<path d="M3.51939 47.6836H1.35352V48.7732H3.51939V47.6836Z" fill="#161616"/>
<path d="M3.52591 49.2285L1.36133 49.3038L1.39951 50.3928L3.56408 50.3174L3.52591 49.2285Z" fill="#161616"/>
<path d="M3.59037 50.7734L1.42969 50.924L1.50605 52.011L3.66673 51.8604L3.59037 50.7734Z" fill="#161616"/>
<path d="M3.70279 52.3086L1.54883 52.534L1.66315 53.6176L3.81712 53.3922L3.70279 52.3086Z" fill="#161616"/>
<path d="M3.87631 53.8477L1.73145 54.1479L1.88373 55.2269L4.0286 54.9266L3.87631 53.8477Z" fill="#161616"/>
<path d="M4.10073 55.373L1.96777 55.7478L2.1578 56.8207L4.29076 56.4461L4.10073 55.373Z" fill="#161616"/>
<path d="M4.3743 56.8906L2.25586 57.3391L2.4833 58.4048L4.60175 57.9563L4.3743 56.8906Z" fill="#161616"/>
<path d="M4.70507 58.4023L2.60352 58.9242L2.86816 59.9813L4.96971 59.4595L4.70507 58.4023Z" fill="#161616"/>
<path d="M5.08791 59.9004L3.00586 60.4949L3.30736 61.5423L5.38942 60.9478L5.08791 59.9004Z" fill="#161616"/>
<path d="M5.52285 61.3828L3.46289 62.0493L3.80093 63.0856L5.8609 62.4191L5.52285 61.3828Z" fill="#161616"/>
<path d="M6.00891 62.8457L3.97363 63.5835L4.34778 64.6073L6.38306 63.8696L6.00891 62.8457Z" fill="#161616"/>
<path d="M6.54723 64.2949L4.53906 65.1031L4.94888 66.1132L6.95709 65.3054L6.54723 64.2949Z" fill="#161616"/>
<path d="M7.13284 65.7188L5.1543 66.5962L5.59923 67.5913L7.57777 66.7139L7.13284 65.7188Z" fill="#161616"/>
<path d="M7.77579 67.1289L5.8291 68.0746L6.30872 69.0541L8.25539 68.1084L7.77579 67.1289Z" fill="#161616"/>
<path d="M8.4621 68.5098L6.5498 69.5225L7.06344 70.4844L8.97573 69.4717L8.4621 68.5098Z" fill="#161616"/>
<path d="M9.195 69.8711L7.31934 70.9495L7.86634 71.8932L9.742 70.8148L9.195 69.8711Z" fill="#161616"/>
<path d="M9.97534 71.2031L8.13867 72.3459L8.71839 73.2701L10.5551 72.1267L9.97534 71.2031Z" fill="#161616"/>
<path d="M10.8053 72.5098L9.00977 73.7163L9.62155 74.619L11.4171 73.4132L10.8053 72.5098Z" fill="#161616"/>
<path d="M11.6799 73.7871L9.92773 75.0547L10.5708 75.9361L12.323 74.6684L11.6799 73.7871Z" fill="#161616"/>
<path d="M12.5993 75.0312L10.8926 76.3594L11.5661 77.2179L13.2729 75.8898L12.5993 75.0312Z" fill="#161616"/>
<path d="M13.5575 76.2402L11.8984 77.6263L12.6017 78.4614L14.2607 77.0747L13.5575 76.2402Z" fill="#161616"/>
<path d="M14.5577 77.418L12.9482 78.8619L13.6803 79.671L15.2897 78.2277L14.5577 77.418Z" fill="#161616"/>
<path d="M15.6068 78.5605L14.0488 80.0591L14.8089 80.8428L16.3667 79.3443L15.6068 78.5605Z" fill="#161616"/>
<path d="M16.6834 79.6738L15.1787 81.2251L15.9656 81.9821L17.4702 80.4303L16.6834 79.6738Z" fill="#161616"/>
<path d="M17.8027 80.7344L16.3535 82.337L17.1664 83.0661L18.6157 81.4635L17.8027 80.7344Z" fill="#161616"/>
<path d="M18.9615 81.7656L17.5693 83.4177L18.4073 84.1181L19.7995 82.4661L18.9615 81.7656Z" fill="#161616"/>
<path d="M20.1578 82.7539L18.8242 84.4541L19.6863 85.1246L21.0199 83.4251L20.1578 82.7539Z" fill="#161616"/>
<path d="M21.3825 83.6953L20.1094 85.4403L20.9944 86.081L22.2675 84.336L21.3825 83.6953Z" fill="#161616"/>
<path d="M22.6409 84.5977L21.4297 86.3856L22.3366 86.995L23.5478 85.2071L22.6409 84.5977Z" fill="#161616"/>
<path d="M23.928 85.4512L22.7803 87.2801L23.708 87.8577L24.8557 86.0287L23.928 85.4512Z" fill="#161616"/>
<path d="M25.25 86.2637L24.167 88.1316L25.1145 88.6767L26.1974 86.8087L25.25 86.2637Z" fill="#161616"/>
<path d="M26.595 87.0332L25.5781 88.9376L26.5441 89.4495L27.561 87.5451L26.595 87.0332Z" fill="#161616"/>
<path d="M27.973 87.75L27.0234 89.6889L28.0067 90.1669L28.9563 88.228L27.973 87.75Z" fill="#161616"/>
<path d="M29.3623 88.4141L28.4814 90.3848L29.4808 90.8277L30.3617 88.857L29.3623 88.4141Z" fill="#161616"/>
<path d="M30.7879 89.0352L29.9766 91.0352L30.991 91.4436L31.8023 89.443L30.7879 89.0352Z" fill="#161616"/>
<path d="M32.2281 89.6055L31.4873 91.6328L32.5154 92.0055L33.2561 89.9782L32.2281 89.6055Z" fill="#161616"/>
<path d="M33.6907 90.125L33.0215 92.177L34.0619 92.5133L34.7312 90.4619L33.6907 90.125Z" fill="#161616"/>
<path d="M35.1672 90.5938L34.5703 92.6672L35.6219 92.9677L36.2189 90.8942L35.1672 90.5938Z" fill="#161616"/>
<path d="M36.6568 91.0137L36.1328 93.1067L37.1944 93.3701L37.7183 91.2771L36.6568 91.0137Z" fill="#161616"/>
<path d="M38.1593 91.3828L37.709 93.4927L38.779 93.7191L39.2293 91.6092L38.1593 91.3828Z" fill="#161616"/>
<path d="M39.6829 91.7012L39.3066 93.8254L40.384 94.0146L40.7602 91.8904L39.6829 91.7012Z" fill="#161616"/>
<path d="M41.2136 91.957L40.9121 94.093L41.9955 94.2445L42.297 92.1086L41.2136 91.957Z" fill="#161616"/>
<path d="M42.7419 92.1621L42.5156 94.3078L43.6036 94.4216L43.8299 92.2759L42.7419 92.1621Z" fill="#161616"/>
<path d="M44.2947 92.3203L44.1436 94.4725L45.235 94.548L45.3861 92.3964L44.2947 92.3203Z" fill="#161616"/>
<path d="M45.8373 92.416L45.7617 94.5715L46.8551 94.6098L46.9307 92.4537L45.8373 92.416Z" fill="#161616"/>
<path d="M48.4788 92.4629H47.3848V94.6196H48.4788V92.4629Z" fill="#161616"/>
<path d="M50.0299 92.416L48.9365 92.4544L49.0121 94.6098L50.1055 94.5721L50.0299 92.416Z" fill="#161616"/>
<path d="M51.5816 92.3164L50.4902 92.3925L50.6414 94.5447L51.7328 94.4686L51.5816 92.3164Z" fill="#161616"/>
<path d="M53.1153 92.1621L52.0273 92.2759L52.2536 94.421L53.3416 94.3071L53.1153 92.1621Z" fill="#161616"/>
<path d="M54.6595 91.957L53.5762 92.1086L53.8776 94.2445L54.9611 94.093L54.6595 91.957Z" fill="#161616"/>
<path d="M56.1789 91.6973L55.1016 91.8865L55.4775 94.0108L56.555 93.8215L56.1789 91.6973Z" fill="#161616"/>
<path d="M57.699 91.3789L56.6289 91.6053L57.0792 93.7152L58.1493 93.4882L57.699 91.3789Z" fill="#161616"/>
<path d="M59.206 91.0176L58.1445 91.281L58.6684 93.374L59.73 93.1106L59.206 91.0176Z" fill="#161616"/>
<path d="M60.7001 90.6035L59.6484 90.904L60.2453 92.9775L61.297 92.677L60.7001 90.6035Z" fill="#161616"/>
<path d="M62.1782 90.1348L61.1377 90.471L61.8069 92.5224L62.8475 92.1861L62.1782 90.1348Z" fill="#161616"/>
<path d="M63.6355 89.6113L62.6074 89.984L63.3482 92.0107L64.3762 91.638L63.6355 89.6113Z" fill="#161616"/>
<path d="M65.0779 89.0391L64.0635 89.4475L64.8748 91.4475L65.889 91.0391L65.0779 89.0391Z" fill="#161616"/>
<path d="M66.4914 88.4141L65.4922 88.8576L66.3732 90.8277L67.3723 90.3848L66.4914 88.4141Z" fill="#161616"/>
<path d="M67.8969 87.7461L66.9141 88.2235L67.8636 90.1624L68.8465 89.6843L67.8969 87.7461Z" fill="#161616"/>
<path d="M69.2657 87.0234L68.2998 87.5347L69.3166 89.439L70.2825 88.9278L69.2657 87.0234Z" fill="#161616"/>
<path d="M70.6117 86.2617L69.6641 86.8061L70.7475 88.6741L71.6944 88.1297L70.6117 86.2617Z" fill="#161616"/>
<path d="M71.927 85.4492L70.999 86.0261L72.1464 87.8557L73.0744 87.2782L71.927 85.4492Z" fill="#161616"/>
<path d="M73.2196 84.5918L72.3125 85.2012L73.5239 86.9898L74.4304 86.3804L73.2196 84.5918Z" fill="#161616"/>
<path d="M74.4806 83.6914L73.5957 84.3314L74.8685 86.0764L75.7541 85.4364L74.4806 83.6914Z" fill="#161616"/>
<path d="M75.7097 82.7461L74.8477 83.4167L76.1812 85.1168L77.0432 84.4456L75.7097 82.7461Z" fill="#161616"/>
<path d="M76.8984 81.7598L76.0605 82.4602L77.4529 84.1123L78.2907 83.4118L76.8984 81.7598Z" fill="#161616"/>
<path d="M78.0513 80.7344L77.2383 81.4635L78.6874 83.0667L79.5005 82.3376L78.0513 80.7344Z" fill="#161616"/>
<path d="M79.1795 79.6621L78.3926 80.4192L79.8972 81.971L80.6842 81.214L79.1795 79.6621Z" fill="#161616"/>
<path d="M80.2621 78.5703L79.502 79.354L81.0595 80.8526L81.8197 80.0689L80.2621 78.5703Z" fill="#161616"/>
<path d="M81.2995 77.4238L80.5674 78.2329L82.1765 79.6762L82.9086 78.8671L81.2995 77.4238Z" fill="#161616"/>
<path d="M82.3049 76.25L81.6016 77.0845L83.2603 78.4711L83.9637 77.636L82.3049 76.25Z" fill="#161616"/>
<path d="M83.271 75.0352L82.5977 75.8937L84.3041 77.2218L84.9774 76.3633L83.271 75.0352Z" fill="#161616"/>
<path d="M84.1862 73.791L83.543 74.6723L85.2951 75.94L85.9384 75.0587L84.1862 73.791Z" fill="#161616"/>
<path d="M85.0572 72.5156L84.4453 73.419L86.2406 74.6249L86.8525 73.7221L85.0572 72.5156Z" fill="#161616"/>
<path d="M85.8826 71.209L85.3027 72.1326L87.1391 73.276L87.719 72.3518L85.8826 71.209Z" fill="#161616"/>
<path d="M86.6667 69.875L86.1201 70.8187L87.9957 71.8971L88.5423 70.9534L86.6667 69.875Z" fill="#161616"/>
<path d="M87.4039 68.5195L86.8906 69.4815L88.8028 70.4942L89.3161 69.5322L87.4039 68.5195Z" fill="#161616"/>
<path d="M88.0952 67.1309L87.6152 68.1104L89.562 69.0561L90.042 68.0765L88.0952 67.1309Z" fill="#161616"/>
<path d="M88.7231 65.7246L88.2783 66.7197L90.2565 67.5971L90.7018 66.6013L88.7231 65.7246Z" fill="#161616"/>
<path d="M89.3177 64.291L88.9082 65.3012L90.9164 66.109L91.3259 65.099L89.3177 64.291Z" fill="#161616"/>
<path d="M89.8537 62.8438L89.4795 63.8676L91.5151 64.6053L91.8893 63.5814L89.8537 62.8438Z" fill="#161616"/>
<path d="M90.3441 61.375L90.0059 62.4113L92.0663 63.0778L92.4039 62.0415L90.3441 61.375Z" fill="#161616"/>
<path d="M90.7757 59.8906L90.4746 60.938L92.5566 61.5325L92.8576 60.4852L90.7757 59.8906Z" fill="#161616"/>
<path d="M91.1587 58.3984L90.8936 59.4556L92.9951 59.9774L93.2602 58.9202L91.1587 58.3984Z" fill="#161616"/>
<path d="M91.487 56.8965L91.2598 57.9622L93.3783 58.4106L93.6056 57.3449L91.487 56.8965Z" fill="#161616"/>
<path d="M91.7623 55.3711L91.5723 56.4441L93.7052 56.8186L93.8952 55.7456L91.7623 55.3711Z" fill="#161616"/>
<path d="M91.994 53.8438L91.8418 54.9227L93.9865 55.223L94.1386 54.144L91.994 53.8438Z" fill="#161616"/>
<path d="M92.1573 52.3105L92.043 53.3941L94.1968 53.6195L94.3111 52.536L92.1573 52.3105Z" fill="#161616"/>
<path d="M92.2825 50.7695L92.2061 51.8565L94.3664 52.0071L94.4428 50.9201L92.2825 50.7695Z" fill="#161616"/>
<path d="M92.3387 49.2266L92.3008 50.3155L94.465 50.3907L94.5036 49.3018L92.3387 49.2266Z" fill="#161616"/>
<path d="M94.5112 47.6836H92.3457V48.7732H94.5112V47.6836Z" fill="#161616"/>
<path d="M94.4657 46.0664L92.3008 46.1417L92.3393 47.2306L94.5036 47.1553L94.4657 46.0664Z" fill="#161616"/>
<path d="M94.3664 44.4473L92.2061 44.5978L92.2825 45.6847L94.4428 45.5342L94.3664 44.4473Z" fill="#161616"/>
<path d="M94.1968 42.8398L92.043 43.0652L92.1573 44.1488L94.3111 43.9234L94.1968 42.8398Z" fill="#161616"/>
<path d="M93.9865 41.2324L91.8418 41.5327L91.994 42.6117L94.1386 42.3114L93.9865 41.2324Z" fill="#161616"/>
<path d="M93.7071 39.6406L91.5742 40.0151L91.7643 41.0881L93.8972 40.7136L93.7071 39.6406Z" fill="#161616"/>
<path d="M93.3754 38.0508L91.2568 38.4992L91.4841 39.5649L93.6026 39.1165L93.3754 38.0508Z" fill="#161616"/>
<path d="M92.9961 36.4785L90.8945 37.0003L91.1597 38.0575L93.2612 37.5357L92.9961 36.4785Z" fill="#161616"/>
<path d="M92.5595 34.9238L90.4775 35.5183L90.7786 36.5657L92.8612 35.9712L92.5595 34.9238Z" fill="#161616"/>
<path d="M92.0666 33.377L90.0068 34.0435L90.3445 35.0798L92.4049 34.4132L92.0666 33.377Z" fill="#161616"/>
<path d="M91.5164 31.8516L89.4814 32.5892L89.8556 33.6131L91.8906 32.8754L91.5164 31.8516Z" fill="#161616"/>
<path d="M90.9164 30.3457L88.9082 31.1538L89.3177 32.164L91.3258 31.3559L90.9164 30.3457Z" fill="#161616"/>
<path d="M90.2574 28.8633L88.2793 29.7406L88.724 30.7359L90.7028 29.8586L90.2574 28.8633Z" fill="#161616"/>
<path d="M89.5601 27.4004L87.6133 28.346L88.0926 29.3253L90.0394 28.3796L89.5601 27.4004Z" fill="#161616"/>
<path d="M88.7999 25.9648L86.8877 26.9776L87.401 27.9395L89.3132 26.9268L88.7999 25.9648Z" fill="#161616"/>
<path d="M87.9957 24.5605L86.1201 25.6391L86.6674 26.5827L88.543 25.5041L87.9957 24.5605Z" fill="#161616"/>
<path d="M87.1401 23.1836L85.3037 24.3267L85.8836 25.2506L87.72 24.1076L87.1401 23.1836Z" fill="#161616"/>
<path d="M86.2406 21.834L84.4453 23.0402L85.0572 23.9434L86.8525 22.7372L86.2406 21.834Z" fill="#161616"/>
<path d="M85.2942 20.5195L83.542 21.7874L84.1853 22.6689L85.9374 21.401L85.2942 20.5195Z" fill="#161616"/>
<path d="M84.3012 19.2363L82.5947 20.5645L83.268 21.423L84.9751 20.0949L84.3012 19.2363Z" fill="#161616"/>
<path d="M83.2594 17.9902L81.6006 19.3768L82.3039 20.2114L83.9627 18.8248L83.2594 17.9902Z" fill="#161616"/>
<path d="M82.1785 16.7852L80.5693 18.2284L81.3008 19.0381L82.9106 17.5948L82.1785 16.7852Z" fill="#161616"/>
<path d="M81.0566 15.6074L79.499 17.106L80.2592 17.8896L81.8167 16.3912L81.0566 15.6074Z" fill="#161616"/>
<path d="M79.8992 14.4844L78.3945 16.036L79.1815 16.7929L80.6861 15.2413L79.8992 14.4844Z" fill="#161616"/>
<path d="M78.6913 13.3926L77.2422 14.9955L78.0552 15.7245L79.5044 14.1216L78.6913 13.3926Z" fill="#161616"/>
<path d="M77.4548 12.3438L76.0625 13.996L76.9004 14.6965L78.2927 13.0441L77.4548 12.3438Z" fill="#161616"/>
<path d="M76.1812 11.3379L74.8477 13.0377L75.7103 13.7085L77.0439 12.0087L76.1812 11.3379Z" fill="#161616"/>
<path d="M74.8692 10.3789L73.5957 12.1239L74.4806 12.7644L75.7541 11.0194L74.8692 10.3789Z" fill="#161616"/>
<path d="M73.5262 9.4668L72.3154 11.255L73.2225 11.8643L74.4333 10.0761L73.5262 9.4668Z" fill="#161616"/>
<path d="M72.151 8.60156L71.0029 10.4308L71.9309 11.0081L73.0783 9.17893L72.151 8.60156Z" fill="#161616"/>
<path d="M70.7488 7.7832L69.666 9.65124L70.6136 10.196L71.6964 8.32798L70.7488 7.7832Z" fill="#161616"/>
<path d="M69.3195 7.01562L68.3027 8.92014L69.2686 9.43169L70.2854 7.52717L69.3195 7.01562Z" fill="#161616"/>
<path d="M67.8626 6.29492L66.9131 8.23368L67.8966 8.71134L68.8461 6.77261L67.8626 6.29492Z" fill="#161616"/>
<path d="M66.3761 5.63086L65.4951 7.60132L66.495 8.04444L67.3759 6.07398L66.3761 5.63086Z" fill="#161616"/>
<path d="M64.8739 5.01172L64.0625 7.01176L65.0769 7.41989L65.8883 5.41987L64.8739 5.01172Z" fill="#161616"/>
<path d="M63.3481 4.44922L62.6074 6.47622L63.6354 6.84887L64.3762 4.82185L63.3481 4.44922Z" fill="#161616"/>
<path d="M61.805 3.9375L61.1357 5.98909L62.1763 6.32576L62.8455 4.27417L61.805 3.9375Z" fill="#161616"/>
<path d="M60.2444 3.48242L59.6475 5.55602L60.6991 5.8563L61.296 3.7827L60.2444 3.48242Z" fill="#161616"/>
<path d="M58.6684 3.08398L58.1445 5.17699L59.206 5.44055L59.73 3.34755L58.6684 3.08398Z" fill="#161616"/>
<path d="M57.0811 2.74219L56.6309 4.85202L57.7009 5.07854L58.1512 2.96871L57.0811 2.74219Z" fill="#161616"/>
<path d="M55.4795 2.44922L55.1035 4.57351L56.1809 4.76265L56.5569 2.63837L55.4795 2.44922Z" fill="#161616"/>
<path d="M53.8757 2.21289L53.5742 4.34903L54.6576 4.5007L54.9591 2.36455L53.8757 2.21289Z" fill="#161616"/>
<path d="M52.2557 2.03711L52.0293 4.18232L53.1173 4.29618L53.3437 2.15097L52.2557 2.03711Z" fill="#161616"/>
<path d="M50.6385 1.91211L50.4873 4.06401L51.5787 4.14006L51.7299 1.98816L50.6385 1.91211Z" fill="#161616"/>
<path d="M49.0111 1.84766L48.9355 4.00343L50.0289 4.04146L50.1045 1.88568L49.0111 1.84766Z" fill="#161616"/>
<path d="M10.3209 49.7268C11.1516 49.5925 11.7157 48.813 11.5809 47.9857C11.4461 47.1583 10.6634 46.5965 9.83267 46.7308C9.00198 46.865 8.4378 47.6445 8.57265 48.4719C8.70745 49.2992 9.49021 49.861 10.3209 49.7268Z" fill="#161616"/>
<path d="M85.5542 49.7249C86.3849 49.5906 86.9492 48.8111 86.8146 47.9837C86.6794 47.1564 85.8971 46.5946 85.0664 46.7288C84.2357 46.8631 83.6714 47.6426 83.806 48.47C83.9411 49.2973 84.7235 49.8592 85.5542 49.7249Z" fill="#161616"/>
<path d="M37.5644 82.0122C37.7898 82.0122 37.9726 81.8301 37.9726 81.6057C37.9726 81.3807 37.7898 81.1992 37.5644 81.1992C37.339 81.1992 37.1562 81.3807 37.1562 81.6057C37.1562 81.8301 37.339 82.0122 37.5644 82.0122Z" fill="#161616"/>
<path d="M56.6513 82.0122C56.8768 82.0122 57.0595 81.8301 57.0595 81.6057C57.0595 81.3807 56.8768 81.1992 56.6513 81.1992C56.4259 81.1992 56.2432 81.3807 56.2432 81.6057C56.2432 81.8301 56.4259 82.0122 56.6513 82.0122Z" fill="#161616"/>
<path d="M41.1534 82.7869L40.7422 83.185V83.6981H43.2444V82.9918H41.9556C42.6398 82.3342 43.1605 81.7729 43.1605 81.0711C43.1605 80.4994 42.7874 79.9219 41.9539 79.9219C41.5575 79.9219 41.1776 80.0578 40.884 80.305L40.7898 80.3843L41.0757 81.0146L41.2407 80.878C41.3529 80.7843 41.5826 80.6282 41.8596 80.6282C42.2048 80.6282 42.3727 80.7921 42.3727 81.1271C42.3681 81.5654 42.0099 81.9752 41.1534 82.7869Z" fill="#161616"/>
<path d="M45.8432 79.9219C45.0242 79.9219 44.4951 80.6783 44.4951 81.851C44.5061 83.0256 45.0005 83.7554 45.7855 83.7554C46.6423 83.7554 47.1336 83.0438 47.1336 81.8022C47.1336 80.625 46.6512 79.9219 45.8432 79.9219ZM45.8117 83.0757C45.4905 83.0757 45.2829 82.5963 45.2829 81.8542C45.2829 81.0939 45.4925 80.6022 45.8169 80.6022C46.277 80.6022 46.3457 81.3671 46.3457 81.823C46.3457 82.1996 46.2936 83.0757 45.8117 83.0757Z" fill="#161616"/>
<path d="M49.7562 83.6975V79.9785H49.1588L48.2656 80.4546L48.4376 81.1304L48.9841 80.8364V83.6975H49.7562Z" fill="#161616"/>
<path d="M53.4495 81.0711C53.4495 80.4988 53.0764 79.9219 52.2429 79.9219C51.8465 79.9219 51.4666 80.0578 51.173 80.305L51.0788 80.3843L51.3647 81.0146L51.5297 80.878C51.6419 80.7843 51.8716 80.6282 52.1486 80.6282C52.4938 80.6282 52.6617 80.7921 52.6617 81.1271C52.6572 81.5654 52.2989 81.9752 51.4425 82.7869L51.0312 83.185V83.6981H53.5335V82.9918H52.2446C52.9287 82.3342 53.4495 81.7729 53.4495 81.0711Z" fill="#161616"/>
</svg>
