<svg width="24" height="24" viewBox="0 0 24 24" fill="none" xmlns="http://www.w3.org/2000/svg">
<path d="M21 3.0021V21L15 20.9979V24L21 24.0021C22.8935 24.0021 24 22.8957 24 21.0021V3.00419C24 1.11064 22.8935 0.00209794 21 0.00209794L15 -1.55894e-05V2.99998L21 3.0021Z" fill="#161616"/>
<path d="M3 21.0021V3.0021L9 3V3.3062e-07L3 0.00209841C1.10645 0.00209841 0 1.11064 0 3.00419V21.0042C0 22.8977 1.10645 24.0021 3 24.0021L9 24V21L3 21.0021Z" fill="#161616"/>
<rect x="8" y="8.00391" width="8" height="8" fill="#161616"/>
</svg>
