<svg width="128" height="86" viewBox="0 0 128 86" fill="none" xmlns="http://www.w3.org/2000/svg">
<path d="M32.9453 19.6875L39.9375 1.5625H46.2461L36.5 24.4922C36.1615 25.2734 35.7708 26.0221 35.3281 26.7383C34.8984 27.4414 34.3841 28.0729 33.7852 28.6328C33.1862 29.1797 32.4701 29.6159 31.6367 29.9414C30.8034 30.2539 29.8073 30.4102 28.6484 30.4102C28.362 30.4102 28.0104 30.4036 27.5938 30.3906C27.1771 30.3776 26.8451 30.3581 26.5977 30.332L26.5586 25.7617C26.7148 25.8008 26.9622 25.8268 27.3008 25.8398C27.6393 25.8398 27.8867 25.8398 28.043 25.8398C28.8112 25.8398 29.4167 25.7292 29.8594 25.5078C30.3021 25.2865 30.6536 24.974 30.9141 24.5703C31.1875 24.1536 31.4284 23.6654 31.6367 23.1055L32.9453 19.6875ZM28.3164 1.5625L34.8008 15.6445L36.6172 22.1094L32.2617 22.1875L22.0273 1.5625H28.3164ZM51.9688 1.5625H56.9297L64.2344 22.4414L71.5391 1.5625H76.5L66.2266 30H62.2422L51.9688 1.5625ZM49.293 1.5625H54.2344L55.1328 21.9141V30H49.293V1.5625ZM74.2344 1.5625H79.1953V30H73.3359V21.9141L74.2344 1.5625ZM94.957 16.3672H90.543V13.2617H94.0586C95.0872 13.2617 95.9206 13.1055 96.5586 12.793C97.1966 12.4674 97.6654 12.0117 97.9648 11.4258C98.2643 10.8398 98.4141 10.1497 98.4141 9.35547C98.4141 8.70443 98.2448 8.10547 97.9062 7.55859C97.5807 7.01172 97.0729 6.57552 96.3828 6.25C95.6927 5.91146 94.8138 5.74219 93.7461 5.74219C92.9388 5.74219 92.2031 5.88542 91.5391 6.17188C90.875 6.45833 90.3477 6.86198 89.957 7.38281C89.5664 7.89062 89.3711 8.50911 89.3711 9.23828H83.5312C83.5312 7.98828 83.7982 6.86849 84.332 5.87891C84.8789 4.8763 85.6211 4.02995 86.5586 3.33984C87.5091 2.63672 88.6029 2.10286 89.8398 1.73828C91.0768 1.3737 92.3789 1.19141 93.7461 1.19141C95.3477 1.19141 96.793 1.36719 98.082 1.71875C99.3711 2.05729 100.478 2.5651 101.402 3.24219C102.327 3.91927 103.036 4.75911 103.531 5.76172C104.026 6.76432 104.273 7.92969 104.273 9.25781C104.273 10.2344 104.052 11.1523 103.609 12.0117C103.167 12.8711 102.535 13.6263 101.715 14.2773C100.895 14.9284 99.9115 15.4427 98.7656 15.8203C97.6198 16.1849 96.3503 16.3672 94.957 16.3672ZM90.543 14.668H94.957C96.5065 14.668 97.8802 14.8307 99.0781 15.1562C100.289 15.4818 101.311 15.957 102.145 16.582C102.991 17.207 103.629 17.9818 104.059 18.9062C104.501 19.8177 104.723 20.8659 104.723 22.0508C104.723 23.3789 104.449 24.5573 103.902 25.5859C103.368 26.6146 102.607 27.487 101.617 28.2031C100.641 28.9193 99.4818 29.4596 98.1406 29.8242C96.8125 30.1888 95.3477 30.3711 93.7461 30.3711C92.4701 30.3711 91.2005 30.2148 89.9375 29.9023C88.6745 29.5768 87.5286 29.082 86.5 28.418C85.4714 27.7539 84.651 26.901 84.0391 25.8594C83.4271 24.8177 83.1211 23.5677 83.1211 22.1094H89C89 22.7995 89.2018 23.431 89.6055 24.0039C90.0091 24.5638 90.569 25.013 91.2852 25.3516C92.0013 25.6771 92.8216 25.8398 93.7461 25.8398C94.8268 25.8398 95.7448 25.6706 96.5 25.332C97.2682 24.9935 97.8477 24.5312 98.2383 23.9453C98.6419 23.3464 98.8438 22.6888 98.8438 21.9727C98.8438 21.2044 98.7396 20.5534 98.5312 20.0195C98.3229 19.4857 98.0169 19.0495 97.6133 18.7109C97.2096 18.3594 96.7083 18.1055 96.1094 17.9492C95.5234 17.793 94.8398 17.7148 94.0586 17.7148H90.543V14.668Z" fill="#161616"/>
<path d="M32.166 51.9062L34.2637 46.4688H36.1562L33.2324 53.3477C33.1309 53.582 33.0137 53.8066 32.8809 54.0215C32.752 54.2324 32.5977 54.4219 32.418 54.5898C32.2383 54.7539 32.0234 54.8848 31.7734 54.9824C31.5234 55.0762 31.2246 55.123 30.877 55.123C30.791 55.123 30.6855 55.1211 30.5605 55.1172C30.4355 55.1133 30.3359 55.1074 30.2617 55.0996L30.25 53.7285C30.2969 53.7402 30.3711 53.748 30.4727 53.752C30.5742 53.752 30.6484 53.752 30.6953 53.752C30.9258 53.752 31.1074 53.7188 31.2402 53.6523C31.373 53.5859 31.4785 53.4922 31.5566 53.3711C31.6387 53.2461 31.7109 53.0996 31.7734 52.9316L32.166 51.9062ZM30.7773 46.4688L32.7227 50.6934L33.2676 52.6328L31.9609 52.6562L28.8906 46.4688H30.7773ZM38.1367 49.8789V57.4375H36.4492V48.6602H38.0137L38.1367 49.8789ZM42.1504 51.7598V51.8828C42.1504 52.3438 42.0957 52.7715 41.9863 53.166C41.8809 53.5605 41.7246 53.9043 41.5176 54.1973C41.3105 54.4863 41.0527 54.7129 40.7441 54.877C40.4395 55.0371 40.0879 55.1172 39.6895 55.1172C39.3027 55.1172 38.9668 55.0391 38.6816 54.8828C38.3965 54.7266 38.1562 54.5078 37.9609 54.2266C37.7695 53.9414 37.6152 53.6113 37.498 53.2363C37.3809 52.8613 37.291 52.459 37.2285 52.0293V51.707C37.291 51.2461 37.3809 50.8242 37.498 50.4414C37.6152 50.0547 37.7695 49.7207 37.9609 49.4395C38.1562 49.1543 38.3945 48.9336 38.6758 48.7773C38.9609 48.6211 39.2949 48.543 39.6777 48.543C40.0801 48.543 40.4336 48.6191 40.7383 48.7715C41.0469 48.9238 41.3047 49.1426 41.5117 49.4277C41.7227 49.7129 41.8809 50.0527 41.9863 50.4473C42.0957 50.8418 42.1504 51.2793 42.1504 51.7598ZM40.457 51.8828V51.7598C40.457 51.4902 40.4336 51.2422 40.3867 51.0156C40.3438 50.7852 40.2734 50.584 40.1758 50.4121C40.082 50.2402 39.957 50.1074 39.8008 50.0137C39.6484 49.916 39.4629 49.8672 39.2441 49.8672C39.0137 49.8672 38.8164 49.9043 38.6523 49.9785C38.4922 50.0527 38.3613 50.1602 38.2598 50.3008C38.1582 50.4414 38.082 50.6094 38.0312 50.8047C37.9805 51 37.9492 51.2207 37.9375 51.4668V52.2812C37.957 52.5703 38.0117 52.8301 38.1016 53.0605C38.1914 53.2871 38.3301 53.4668 38.5176 53.5996C38.7051 53.7324 38.9512 53.7988 39.2559 53.7988C39.4785 53.7988 39.666 53.75 39.8184 53.6523C39.9707 53.5508 40.0938 53.4121 40.1875 53.2363C40.2852 53.0605 40.3535 52.8574 40.3926 52.627C40.4355 52.3965 40.457 52.1484 40.457 51.8828ZM47.0254 51.1152V52.4395H43.6035V51.1152H47.0254ZM45.0273 48.6602V55H43.334V48.6602H45.0273ZM45.8828 51.8945V51.7715C45.8828 51.3066 45.9492 50.8789 46.082 50.4883C46.2148 50.0938 46.4082 49.752 46.6621 49.4629C46.9199 49.1738 47.2344 48.9492 47.6055 48.7891C47.9766 48.625 48.4004 48.543 48.877 48.543C49.3613 48.543 49.7891 48.625 50.1602 48.7891C50.5352 48.9492 50.8516 49.1738 51.1094 49.4629C51.3672 49.752 51.5605 50.0938 51.6895 50.4883C51.8223 50.8789 51.8887 51.3066 51.8887 51.7715V51.8945C51.8887 52.3555 51.8223 52.7832 51.6895 53.1777C51.5605 53.5684 51.3672 53.9102 51.1094 54.2031C50.8555 54.4922 50.541 54.7168 50.166 54.877C49.7949 55.0371 49.3691 55.1172 48.8887 55.1172C48.4082 55.1172 47.9824 55.0371 47.6113 54.877C47.2402 54.7168 46.9258 54.4922 46.668 54.2031C46.4102 53.9102 46.2148 53.5684 46.082 53.1777C45.9492 52.7832 45.8828 52.3555 45.8828 51.8945ZM47.5703 51.7715V51.8945C47.5703 52.1602 47.5938 52.4082 47.6406 52.6387C47.6914 52.8691 47.7676 53.0723 47.8691 53.248C47.9746 53.4199 48.1113 53.5547 48.2793 53.6523C48.4473 53.75 48.6504 53.7988 48.8887 53.7988C49.127 53.7988 49.3281 53.75 49.4922 53.6523C49.6602 53.5547 49.7949 53.4199 49.8965 53.248C50.002 53.0723 50.0781 52.8691 50.125 52.6387C50.1758 52.4082 50.2012 52.1602 50.2012 51.8945V51.7715C50.2012 51.5137 50.1758 51.2715 50.125 51.0449C50.0781 50.8145 50.002 50.6113 49.8965 50.4355C49.7949 50.2559 49.6602 50.1152 49.4922 50.0137C49.3242 49.9121 49.1191 49.8613 48.877 49.8613C48.6426 49.8613 48.4414 49.9121 48.2734 50.0137C48.1094 50.1152 47.9746 50.2559 47.8691 50.4355C47.7676 50.6113 47.6914 50.8145 47.6406 51.0449C47.5938 51.2715 47.5703 51.5137 47.5703 51.7715ZM57.2031 48.6602V49.9844H54.1328V48.6602H57.2031ZM54.6191 48.6602V55H52.9316V48.6602H54.6191ZM58.4336 48.6602V55H56.7402V48.6602H58.4336ZM61.416 52.6445L63.543 48.6602H65.2305V55H63.543V51.0098L61.416 55H59.7285V48.6602H61.416V52.6445ZM70.873 51.2207V52.5332H67.6504V51.2207H70.873ZM68.2129 48.6602V55H66.5254V48.6602H68.2129ZM72.0156 48.6602V55H70.3223V48.6602H72.0156ZM75.9473 53.7988C76.1543 53.7988 76.3379 53.7598 76.498 53.6816C76.6582 53.5996 76.7832 53.4863 76.873 53.3418C76.9668 53.1934 77.0156 53.0195 77.0195 52.8203H78.6074C78.6035 53.2656 78.4844 53.6621 78.25 54.0098C78.0156 54.3535 77.7012 54.625 77.3066 54.8242C76.9121 55.0195 76.4707 55.1172 75.9824 55.1172C75.4902 55.1172 75.0605 55.0352 74.6934 54.8711C74.3301 54.707 74.0273 54.4805 73.7852 54.1914C73.543 53.8984 73.3613 53.5586 73.2402 53.1719C73.1191 52.7812 73.0586 52.3633 73.0586 51.918V51.748C73.0586 51.2988 73.1191 50.8809 73.2402 50.4941C73.3613 50.1035 73.543 49.7637 73.7852 49.4746C74.0273 49.1816 74.3301 48.9531 74.6934 48.7891C75.0566 48.625 75.4824 48.543 75.9707 48.543C76.4902 48.543 76.9453 48.6426 77.3359 48.8418C77.7305 49.041 78.0391 49.3262 78.2617 49.6973C78.4883 50.0645 78.6035 50.5 78.6074 51.0039H77.0195C77.0156 50.793 76.9707 50.6016 76.8848 50.4297C76.8027 50.2578 76.6816 50.1211 76.5215 50.0195C76.3652 49.9141 76.1719 49.8613 75.9414 49.8613C75.6953 49.8613 75.4941 49.9141 75.3379 50.0195C75.1816 50.1211 75.0605 50.2617 74.9746 50.4414C74.8887 50.6172 74.8281 50.8184 74.793 51.0449C74.7617 51.2676 74.7461 51.502 74.7461 51.748V51.918C74.7461 52.1641 74.7617 52.4004 74.793 52.627C74.8242 52.8535 74.8828 53.0547 74.9688 53.2305C75.0586 53.4062 75.1816 53.5449 75.3379 53.6465C75.4941 53.748 75.6973 53.7988 75.9473 53.7988ZM81.3848 48.6602V55H79.6973V48.6602H81.3848ZM85.5039 48.6602L82.7734 52.627H81.0859L80.8809 51.0684H82L83.3652 48.6602H85.5039ZM83.4414 55L81.8828 52.3223L83.3535 51.5078L85.7031 55H83.4414ZM88.0176 52.6445L90.1445 48.6602H91.832V55H90.1445V51.0098L88.0176 55H86.3301V48.6602H88.0176V52.6445ZM94.8145 52.6445L96.9414 48.6602H98.6289V55H96.9414V51.0098L94.8145 55H93.127V48.6602H94.8145V52.6445ZM96.748 46.1113H97.9492C97.9492 46.4473 97.8652 46.7461 97.6973 47.0078C97.5332 47.2656 97.2988 47.4688 96.9941 47.6172C96.6895 47.7617 96.3301 47.834 95.916 47.834C95.2871 47.834 94.7891 47.6738 94.4219 47.3535C94.0586 47.0332 93.877 46.6191 93.877 46.1113H95.0723C95.0723 46.3145 95.1348 46.4961 95.2598 46.6562C95.3887 46.8164 95.6074 46.8965 95.916 46.8965C96.2207 46.8965 96.4355 46.8164 96.5605 46.6562C96.6855 46.4961 96.748 46.3145 96.748 46.1113ZM4.62109 67.0605L6.28516 62.6602H7.66211L5.18945 69H4.05273L1.5918 62.6602H2.96875L4.62109 67.0605ZM2.56445 62.6602V69H0.876953V62.6602H2.56445ZM6.71875 69V62.6602H8.40625V69H6.71875ZM13.3047 67.5703V64.7461C13.3047 64.543 13.2715 64.3691 13.2051 64.2246C13.1387 64.0762 13.0352 63.9609 12.8945 63.8789C12.7578 63.7969 12.5801 63.7559 12.3613 63.7559C12.1738 63.7559 12.0117 63.7891 11.875 63.8555C11.7383 63.918 11.6328 64.0098 11.5586 64.1309C11.4844 64.248 11.4473 64.3867 11.4473 64.5469H9.75977C9.75977 64.2773 9.82227 64.0215 9.94727 63.7793C10.0723 63.5371 10.2539 63.3242 10.4922 63.1406C10.7305 62.9531 11.0137 62.8066 11.3418 62.7012C11.6738 62.5957 12.0449 62.543 12.4551 62.543C12.9473 62.543 13.3848 62.625 13.7676 62.7891C14.1504 62.9531 14.4512 63.1992 14.6699 63.5273C14.8926 63.8555 15.0039 64.2656 15.0039 64.7578V67.4707C15.0039 67.8184 15.0254 68.1035 15.0684 68.3262C15.1113 68.5449 15.1738 68.7363 15.2559 68.9004V69H13.5508C13.4688 68.8281 13.4062 68.6133 13.3633 68.3555C13.3242 68.0938 13.3047 67.832 13.3047 67.5703ZM13.5273 65.1387L13.5391 66.0938H12.5957C12.373 66.0938 12.1797 66.1191 12.0156 66.1699C11.8516 66.2207 11.7168 66.293 11.6113 66.3867C11.5059 66.4766 11.4277 66.582 11.377 66.7031C11.3301 66.8242 11.3066 66.957 11.3066 67.1016C11.3066 67.2461 11.3398 67.377 11.4062 67.4941C11.4727 67.6074 11.5684 67.6973 11.6934 67.7637C11.8184 67.8262 11.9648 67.8574 12.1328 67.8574C12.3867 67.8574 12.6074 67.8066 12.7949 67.7051C12.9824 67.6035 13.127 67.4785 13.2285 67.3301C13.334 67.1816 13.3887 67.041 13.3926 66.9082L13.8379 67.623C13.7754 67.7832 13.6895 67.9492 13.5801 68.1211C13.4746 68.293 13.3398 68.4551 13.1758 68.6074C13.0117 68.7559 12.8145 68.8789 12.584 68.9766C12.3535 69.0703 12.0801 69.1172 11.7637 69.1172C11.3613 69.1172 10.9961 69.0371 10.668 68.877C10.3438 68.7129 10.0859 68.4883 9.89453 68.2031C9.70703 67.9141 9.61328 67.5859 9.61328 67.2188C9.61328 66.8867 9.67578 66.5918 9.80078 66.334C9.92578 66.0762 10.1094 65.8594 10.3516 65.6836C10.5977 65.5039 10.9043 65.3691 11.2715 65.2793C11.6387 65.1855 12.0645 65.1387 12.5488 65.1387H13.5273ZM16.2988 62.6602H17.9863V67.6816H19.7383V62.6602H21.4375V67.6816H23.1836V62.6602H24.8711V69H16.2988V62.6602ZM27.9121 66.6445L30.0391 62.6602H31.7266V69H30.0391V65.0098L27.9121 69H26.2246V62.6602H27.9121V66.6445ZM37.3691 65.2207V66.5332H34.1465V65.2207H37.3691ZM34.709 62.6602V69H33.0215V62.6602H34.709ZM38.5117 62.6602V69H36.8184V62.6602H38.5117ZM39.5547 65.8945V65.7715C39.5547 65.3066 39.6211 64.8789 39.7539 64.4883C39.8867 64.0938 40.0801 63.752 40.334 63.4629C40.5879 63.1738 40.9004 62.9492 41.2715 62.7891C41.6426 62.625 42.0684 62.543 42.5488 62.543C43.0293 62.543 43.457 62.625 43.832 62.7891C44.207 62.9492 44.5215 63.1738 44.7754 63.4629C45.0332 63.752 45.2285 64.0938 45.3613 64.4883C45.4941 64.8789 45.5605 65.3066 45.5605 65.7715V65.8945C45.5605 66.3555 45.4941 66.7832 45.3613 67.1777C45.2285 67.5684 45.0332 67.9102 44.7754 68.2031C44.5215 68.4922 44.209 68.7168 43.8379 68.877C43.4668 69.0371 43.041 69.1172 42.5605 69.1172C42.0801 69.1172 41.6523 69.0371 41.2773 68.877C40.9062 68.7168 40.5918 68.4922 40.334 68.2031C40.0801 67.9102 39.8867 67.5684 39.7539 67.1777C39.6211 66.7832 39.5547 66.3555 39.5547 65.8945ZM41.2422 65.7715V65.8945C41.2422 66.1602 41.2656 66.4082 41.3125 66.6387C41.3594 66.8691 41.4336 67.0723 41.5352 67.248C41.6406 67.4199 41.7773 67.5547 41.9453 67.6523C42.1133 67.75 42.3184 67.7988 42.5605 67.7988C42.7949 67.7988 42.9961 67.75 43.1641 67.6523C43.332 67.5547 43.4668 67.4199 43.5684 67.248C43.6699 67.0723 43.7441 66.8691 43.791 66.6387C43.8418 66.4082 43.8672 66.1602 43.8672 65.8945V65.7715C43.8672 65.5137 43.8418 65.2715 43.791 65.0449C43.7441 64.8145 43.668 64.6113 43.5625 64.4355C43.4609 64.2559 43.3262 64.1152 43.1582 64.0137C42.9902 63.9121 42.7871 63.8613 42.5488 63.8613C42.3105 63.8613 42.1074 63.9121 41.9395 64.0137C41.7754 64.1152 41.6406 64.2559 41.5352 64.4355C41.4336 64.6113 41.3594 64.8145 41.3125 65.0449C41.2656 65.2715 41.2422 65.5137 41.2422 65.7715ZM49.2168 67.7988C49.4238 67.7988 49.6074 67.7598 49.7676 67.6816C49.9277 67.5996 50.0527 67.4863 50.1426 67.3418C50.2363 67.1934 50.2852 67.0195 50.2891 66.8203H51.877C51.873 67.2656 51.7539 67.6621 51.5195 68.0098C51.2852 68.3535 50.9707 68.625 50.5762 68.8242C50.1816 69.0195 49.7402 69.1172 49.252 69.1172C48.7598 69.1172 48.3301 69.0352 47.9629 68.8711C47.5996 68.707 47.2969 68.4805 47.0547 68.1914C46.8125 67.8984 46.6309 67.5586 46.5098 67.1719C46.3887 66.7812 46.3281 66.3633 46.3281 65.918V65.748C46.3281 65.2988 46.3887 64.8809 46.5098 64.4941C46.6309 64.1035 46.8125 63.7637 47.0547 63.4746C47.2969 63.1816 47.5996 62.9531 47.9629 62.7891C48.3262 62.625 48.752 62.543 49.2402 62.543C49.7598 62.543 50.2148 62.6426 50.6055 62.8418C51 63.041 51.3086 63.3262 51.5312 63.6973C51.7578 64.0645 51.873 64.5 51.877 65.0039H50.2891C50.2852 64.793 50.2402 64.6016 50.1543 64.4297C50.0723 64.2578 49.9512 64.1211 49.791 64.0195C49.6348 63.9141 49.4414 63.8613 49.2109 63.8613C48.9648 63.8613 48.7637 63.9141 48.6074 64.0195C48.4512 64.1211 48.3301 64.2617 48.2441 64.4414C48.1582 64.6172 48.0977 64.8184 48.0625 65.0449C48.0312 65.2676 48.0156 65.502 48.0156 65.748V65.918C48.0156 66.1641 48.0312 66.4004 48.0625 66.627C48.0938 66.8535 48.1523 67.0547 48.2383 67.2305C48.3281 67.4062 48.4512 67.5449 48.6074 67.6465C48.7637 67.748 48.9668 67.7988 49.2168 67.7988ZM56.084 62.6602V69H54.3906V62.6602H56.084ZM58.123 62.6602V63.9668H52.3809V62.6602H58.123ZM60.6719 63.8789V71.4375H58.9844V62.6602H60.5488L60.6719 63.8789ZM64.6855 65.7598V65.8828C64.6855 66.3438 64.6309 66.7715 64.5215 67.166C64.416 67.5605 64.2598 67.9043 64.0527 68.1973C63.8457 68.4863 63.5879 68.7129 63.2793 68.877C62.9746 69.0371 62.623 69.1172 62.2246 69.1172C61.8379 69.1172 61.502 69.0391 61.2168 68.8828C60.9316 68.7266 60.6914 68.5078 60.4961 68.2266C60.3047 67.9414 60.1504 67.6113 60.0332 67.2363C59.916 66.8613 59.8262 66.459 59.7637 66.0293V65.707C59.8262 65.2461 59.916 64.8242 60.0332 64.4414C60.1504 64.0547 60.3047 63.7207 60.4961 63.4395C60.6914 63.1543 60.9297 62.9336 61.2109 62.7773C61.4961 62.6211 61.8301 62.543 62.2129 62.543C62.6152 62.543 62.9688 62.6191 63.2734 62.7715C63.582 62.9238 63.8398 63.1426 64.0469 63.4277C64.2578 63.7129 64.416 64.0527 64.5215 64.4473C64.6309 64.8418 64.6855 65.2793 64.6855 65.7598ZM62.9922 65.8828V65.7598C62.9922 65.4902 62.9688 65.2422 62.9219 65.0156C62.8789 64.7852 62.8086 64.584 62.7109 64.4121C62.6172 64.2402 62.4922 64.1074 62.3359 64.0137C62.1836 63.916 61.998 63.8672 61.7793 63.8672C61.5488 63.8672 61.3516 63.9043 61.1875 63.9785C61.0273 64.0527 60.8965 64.1602 60.7949 64.3008C60.6934 64.4414 60.6172 64.6094 60.5664 64.8047C60.5156 65 60.4844 65.2207 60.4727 65.4668V66.2812C60.4922 66.5703 60.5469 66.8301 60.6367 67.0605C60.7266 67.2871 60.8652 67.4668 61.0527 67.5996C61.2402 67.7324 61.4863 67.7988 61.791 67.7988C62.0137 67.7988 62.2012 67.75 62.3535 67.6523C62.5059 67.5508 62.6289 67.4121 62.7227 67.2363C62.8203 67.0605 62.8887 66.8574 62.9277 66.627C62.9707 66.3965 62.9922 66.1484 62.9922 65.8828ZM65.4648 65.8945V65.7715C65.4648 65.3066 65.5312 64.8789 65.6641 64.4883C65.7969 64.0938 65.9902 63.752 66.2441 63.4629C66.498 63.1738 66.8105 62.9492 67.1816 62.7891C67.5527 62.625 67.9785 62.543 68.459 62.543C68.9395 62.543 69.3672 62.625 69.7422 62.7891C70.1172 62.9492 70.4316 63.1738 70.6855 63.4629C70.9434 63.752 71.1387 64.0938 71.2715 64.4883C71.4043 64.8789 71.4707 65.3066 71.4707 65.7715V65.8945C71.4707 66.3555 71.4043 66.7832 71.2715 67.1777C71.1387 67.5684 70.9434 67.9102 70.6855 68.2031C70.4316 68.4922 70.1191 68.7168 69.748 68.877C69.377 69.0371 68.9512 69.1172 68.4707 69.1172C67.9902 69.1172 67.5625 69.0371 67.1875 68.877C66.8164 68.7168 66.502 68.4922 66.2441 68.2031C65.9902 67.9102 65.7969 67.5684 65.6641 67.1777C65.5312 66.7832 65.4648 66.3555 65.4648 65.8945ZM67.1523 65.7715V65.8945C67.1523 66.1602 67.1758 66.4082 67.2227 66.6387C67.2695 66.8691 67.3438 67.0723 67.4453 67.248C67.5508 67.4199 67.6875 67.5547 67.8555 67.6523C68.0234 67.75 68.2285 67.7988 68.4707 67.7988C68.7051 67.7988 68.9062 67.75 69.0742 67.6523C69.2422 67.5547 69.377 67.4199 69.4785 67.248C69.5801 67.0723 69.6543 66.8691 69.7012 66.6387C69.752 66.4082 69.7773 66.1602 69.7773 65.8945V65.7715C69.7773 65.5137 69.752 65.2715 69.7012 65.0449C69.6543 64.8145 69.5781 64.6113 69.4727 64.4355C69.3711 64.2559 69.2363 64.1152 69.0684 64.0137C68.9004 63.9121 68.6973 63.8613 68.459 63.8613C68.2207 63.8613 68.0176 63.9121 67.8496 64.0137C67.6855 64.1152 67.5508 64.2559 67.4453 64.4355C67.3438 64.6113 67.2695 64.8145 67.2227 65.0449C67.1758 65.2715 67.1523 65.5137 67.1523 65.7715ZM74.1895 66.6445L76.3164 62.6602H78.0039V69H76.3164V65.0098L74.1895 69H72.502V62.6602H74.1895V66.6445ZM82.5332 62.6602V69H80.8398V62.6602H82.5332ZM84.5723 62.6602V63.9668H78.8301V62.6602H84.5723ZM87.9414 69.1172C87.4492 69.1172 87.0078 69.0391 86.6172 68.8828C86.2266 68.7227 85.8945 68.502 85.6211 68.2207C85.3516 67.9395 85.1445 67.6133 85 67.2422C84.8555 66.8672 84.7832 66.4688 84.7832 66.0469V65.8125C84.7832 65.332 84.8516 64.8926 84.9883 64.4941C85.125 64.0957 85.3203 63.75 85.5742 63.457C85.832 63.1641 86.1445 62.9395 86.5117 62.7832C86.8789 62.623 87.293 62.543 87.7539 62.543C88.2031 62.543 88.6016 62.6172 88.9492 62.7656C89.2969 62.9141 89.5879 63.125 89.8223 63.3984C90.0605 63.6719 90.2402 64 90.3613 64.3828C90.4824 64.7617 90.543 65.1836 90.543 65.6484V66.3516H85.5039V65.2266H88.8848V65.0977C88.8848 64.8633 88.8418 64.6543 88.7559 64.4707C88.6738 64.2832 88.5488 64.1348 88.3809 64.0254C88.2129 63.916 87.998 63.8613 87.7363 63.8613C87.5137 63.8613 87.3223 63.9102 87.1621 64.0078C87.002 64.1055 86.8711 64.2422 86.7695 64.418C86.6719 64.5938 86.5977 64.8008 86.5469 65.0391C86.5 65.2734 86.4766 65.5312 86.4766 65.8125V66.0469C86.4766 66.3008 86.5117 66.5352 86.582 66.75C86.6562 66.9648 86.7598 67.1504 86.8926 67.3066C87.0293 67.4629 87.1934 67.584 87.3848 67.6699C87.5801 67.7559 87.8008 67.7988 88.0469 67.7988C88.3516 67.7988 88.6348 67.7402 88.8965 67.623C89.1621 67.502 89.3906 67.3203 89.582 67.0781L90.4023 67.9688C90.2695 68.1602 90.0879 68.3438 89.8574 68.5195C89.6309 68.6953 89.3574 68.8398 89.0371 68.9531C88.7168 69.0625 88.3516 69.1172 87.9414 69.1172ZM95.7695 62.6602V63.9844H92.6523V62.6602H95.7695ZM97.0059 62.6602V69H95.3184V62.6602H97.0059ZM92.2305 62.6602H93.8887L93.7188 65.8594C93.6953 66.3164 93.6465 66.7188 93.5723 67.0664C93.498 67.4141 93.3984 67.7109 93.2734 67.957C93.1523 68.2031 93.0059 68.4043 92.834 68.5605C92.666 68.7129 92.4688 68.8242 92.2422 68.8945C92.0195 68.9648 91.7734 69 91.5039 69H90.9883L90.9707 67.6699L91.1875 67.6465C91.3125 67.6348 91.4219 67.5996 91.5156 67.541C91.6133 67.4785 91.6953 67.3906 91.7617 67.2773C91.832 67.1602 91.8906 67.0137 91.9375 66.8379C91.9844 66.6582 92.0215 66.4473 92.0488 66.2051C92.0801 65.9629 92.1016 65.6836 92.1133 65.3672L92.2305 62.6602ZM99.4785 64.541H101.318C101.896 64.541 102.389 64.6367 102.795 64.8281C103.205 65.0156 103.518 65.2773 103.732 65.6133C103.951 65.9492 104.061 66.3379 104.061 66.7793C104.061 67.0996 103.998 67.3965 103.873 67.6699C103.752 67.9395 103.574 68.1738 103.34 68.373C103.105 68.5723 102.818 68.7266 102.479 68.8359C102.139 68.9453 101.752 69 101.318 69H98.4238V62.6602H100.117V67.6875H101.318C101.572 67.6875 101.775 67.6465 101.928 67.5645C102.084 67.4785 102.197 67.3672 102.268 67.2305C102.342 67.0938 102.379 66.9453 102.379 66.7852C102.379 66.6172 102.342 66.4648 102.268 66.3281C102.197 66.1875 102.084 66.0742 101.928 65.9883C101.775 65.9023 101.572 65.8594 101.318 65.8594H99.4785V64.541ZM109.357 65.2207V66.5332H106.135V65.2207H109.357ZM106.697 62.6602V69H105.01V62.6602H106.697ZM110.5 62.6602V69H108.807V62.6602H110.5ZM112.979 64.541H114.818C115.396 64.541 115.889 64.6367 116.295 64.8281C116.705 65.0156 117.018 65.2773 117.232 65.6133C117.451 65.9492 117.561 66.3379 117.561 66.7793C117.561 67.0996 117.498 67.3965 117.373 67.6699C117.252 67.9395 117.074 68.1738 116.84 68.373C116.605 68.5723 116.318 68.7266 115.979 68.8359C115.639 68.9453 115.252 69 114.818 69H111.924V62.6602H113.617V67.6875H114.818C115.072 67.6875 115.275 67.6465 115.428 67.5645C115.584 67.4785 115.697 67.3672 115.768 67.2305C115.842 67.0938 115.879 66.9453 115.879 66.7852C115.879 66.6172 115.842 66.4648 115.768 66.3281C115.697 66.1875 115.584 66.0742 115.428 65.9883C115.275 65.9023 115.072 65.8594 114.818 65.8594H112.979V64.541ZM120.268 62.6602V69H118.58V62.6602H120.268ZM123.432 66.6445L125.559 62.6602H127.246V69H125.559V65.0098L123.432 69H121.744V62.6602H123.432V66.6445ZM125.365 60.1113H126.566C126.566 60.4473 126.482 60.7461 126.314 61.0078C126.15 61.2656 125.916 61.4688 125.611 61.6172C125.307 61.7617 124.947 61.834 124.533 61.834C123.904 61.834 123.406 61.6738 123.039 61.3535C122.676 61.0332 122.494 60.6191 122.494 60.1113H123.689C123.689 60.3145 123.752 60.4961 123.877 60.6562C124.006 60.8164 124.225 60.8965 124.533 60.8965C124.838 60.8965 125.053 60.8164 125.178 60.6562C125.303 60.4961 125.365 60.3145 125.365 60.1113ZM50.8281 79.9766H49.5742V79.2207H50.4707C50.6816 79.2207 50.8496 79.1914 50.9746 79.1328C51.1035 79.0742 51.1953 78.9922 51.25 78.8867C51.3086 78.7773 51.3379 78.6543 51.3379 78.5176C51.3379 78.3965 51.3125 78.2812 51.2617 78.1719C51.2148 78.0586 51.1289 77.9668 51.0039 77.8965C50.8828 77.8223 50.7109 77.7852 50.4883 77.7852C50.3047 77.7852 50.1406 77.8125 49.9961 77.8672C49.8555 77.9219 49.7441 78.002 49.6621 78.1074C49.584 78.209 49.5449 78.332 49.5449 78.4766H47.8516C47.8516 78.0742 47.9668 77.7305 48.1973 77.4453C48.4277 77.1562 48.7363 76.9355 49.123 76.7832C49.5098 76.627 49.9336 76.5488 50.3945 76.5488C50.7969 76.5488 51.1602 76.5898 51.4844 76.6719C51.8086 76.75 52.0859 76.8672 52.3164 77.0234C52.5469 77.1797 52.7227 77.373 52.8438 77.6035C52.9688 77.8301 53.0312 78.0938 53.0312 78.3945C53.0312 78.6094 52.9805 78.8125 52.8789 79.0039C52.7773 79.1953 52.6309 79.3652 52.4395 79.5137C52.248 79.6582 52.0156 79.7715 51.7422 79.8535C51.4727 79.9355 51.168 79.9766 50.8281 79.9766ZM49.5742 79.5547H50.8281C51.207 79.5547 51.5391 79.5918 51.8242 79.666C52.1133 79.7363 52.3555 79.8418 52.5508 79.9824C52.7461 80.123 52.8926 80.2969 52.9902 80.5039C53.0918 80.707 53.1426 80.9414 53.1426 81.207C53.1426 81.5078 53.0762 81.7773 52.9434 82.0156C52.8105 82.25 52.6211 82.4492 52.375 82.6133C52.1289 82.7773 51.8379 82.9023 51.502 82.9883C51.166 83.0742 50.7969 83.1172 50.3945 83.1172C49.9648 83.1172 49.5469 83.0469 49.1406 82.9062C48.7344 82.7656 48.4004 82.5488 48.1387 82.2559C47.8809 81.9629 47.752 81.5859 47.752 81.125H49.4453C49.4453 81.2578 49.4844 81.3828 49.5625 81.5C49.6406 81.6172 49.7578 81.7109 49.9141 81.7812C50.0703 81.8477 50.2637 81.8809 50.4941 81.8809C50.7246 81.8809 50.9102 81.8438 51.0508 81.7695C51.1914 81.6953 51.293 81.5977 51.3555 81.4766C51.4219 81.3516 51.4551 81.2227 51.4551 81.0898C51.4551 80.9023 51.418 80.75 51.3438 80.6328C51.2734 80.5156 51.1641 80.4297 51.0156 80.375C50.8711 80.3203 50.6895 80.293 50.4707 80.293H49.5742V79.5547ZM57.6016 81.5703V78.7461C57.6016 78.543 57.5684 78.3691 57.502 78.2246C57.4355 78.0762 57.332 77.9609 57.1914 77.8789C57.0547 77.7969 56.877 77.7559 56.6582 77.7559C56.4707 77.7559 56.3086 77.7891 56.1719 77.8555C56.0352 77.918 55.9297 78.0098 55.8555 78.1309C55.7812 78.248 55.7441 78.3867 55.7441 78.5469H54.0566C54.0566 78.2773 54.1191 78.0215 54.2441 77.7793C54.3691 77.5371 54.5508 77.3242 54.7891 77.1406C55.0273 76.9531 55.3105 76.8066 55.6387 76.7012C55.9707 76.5957 56.3418 76.543 56.752 76.543C57.2441 76.543 57.6816 76.625 58.0645 76.7891C58.4473 76.9531 58.748 77.1992 58.9668 77.5273C59.1895 77.8555 59.3008 78.2656 59.3008 78.7578V81.4707C59.3008 81.8184 59.3223 82.1035 59.3652 82.3262C59.4082 82.5449 59.4707 82.7363 59.5527 82.9004V83H57.8477C57.7656 82.8281 57.7031 82.6133 57.6602 82.3555C57.6211 82.0938 57.6016 81.832 57.6016 81.5703ZM57.8242 79.1387L57.8359 80.0938H56.8926C56.6699 80.0938 56.4766 80.1191 56.3125 80.1699C56.1484 80.2207 56.0137 80.293 55.9082 80.3867C55.8027 80.4766 55.7246 80.582 55.6738 80.7031C55.627 80.8242 55.6035 80.957 55.6035 81.1016C55.6035 81.2461 55.6367 81.377 55.7031 81.4941C55.7695 81.6074 55.8652 81.6973 55.9902 81.7637C56.1152 81.8262 56.2617 81.8574 56.4297 81.8574C56.6836 81.8574 56.9043 81.8066 57.0918 81.7051C57.2793 81.6035 57.4238 81.4785 57.5254 81.3301C57.6309 81.1816 57.6855 81.041 57.6895 80.9082L58.1348 81.623C58.0723 81.7832 57.9863 81.9492 57.877 82.1211C57.7715 82.293 57.6367 82.4551 57.4727 82.6074C57.3086 82.7559 57.1113 82.8789 56.8809 82.9766C56.6504 83.0703 56.377 83.1172 56.0605 83.1172C55.6582 83.1172 55.293 83.0371 54.9648 82.877C54.6406 82.7129 54.3828 82.4883 54.1914 82.2031C54.0039 81.9141 53.9102 81.5859 53.9102 81.2188C53.9102 80.8867 53.9727 80.5918 54.0977 80.334C54.2227 80.0762 54.4062 79.8594 54.6484 79.6836C54.8945 79.5039 55.2012 79.3691 55.5684 79.2793C55.9355 79.1855 56.3613 79.1387 56.8457 79.1387H57.8242ZM63.7598 80.3516H61.7734L61.7617 79.2441H63.4023C63.6211 79.2441 63.7988 79.2227 63.9355 79.1797C64.0723 79.1328 64.1719 79.0645 64.2344 78.9746C64.3008 78.8809 64.334 78.7676 64.334 78.6348C64.334 78.5176 64.3125 78.418 64.2695 78.3359C64.2305 78.25 64.1699 78.1797 64.0879 78.125C64.0059 78.0703 63.9023 78.0312 63.7773 78.0078C63.6562 77.9805 63.5137 77.9668 63.3496 77.9668H62.4004V83H60.7129V76.6602H63.3496C63.7637 76.6602 64.1348 76.6973 64.4629 76.7715C64.791 76.8418 65.0703 76.9492 65.3008 77.0938C65.5352 77.2383 65.7129 77.4219 65.834 77.6445C65.959 77.8633 66.0215 78.123 66.0215 78.4238C66.0215 78.6191 65.9766 78.8027 65.8867 78.9746C65.8008 79.1465 65.6719 79.2988 65.5 79.4316C65.3281 79.5645 65.1152 79.6738 64.8613 79.7598C64.6113 79.8418 64.3223 79.8926 63.9941 79.9121L63.7598 80.3516ZM63.7598 83H61.3574L61.9375 81.6934H63.7598C63.9668 81.6934 64.1367 81.668 64.2695 81.6172C64.4023 81.5664 64.5 81.4922 64.5625 81.3945C64.6289 81.293 64.6621 81.1719 64.6621 81.0312C64.6621 80.8945 64.6328 80.7754 64.5742 80.6738C64.5156 80.5723 64.4199 80.4941 64.2871 80.4395C64.1582 80.3809 63.9824 80.3516 63.7598 80.3516H62.1836L62.1953 79.2441H63.9883L64.3984 79.6895C64.8438 79.7168 65.2109 79.8008 65.5 79.9414C65.7891 80.082 66.002 80.2617 66.1387 80.4805C66.2793 80.6953 66.3496 80.9316 66.3496 81.1895C66.3496 81.4902 66.293 81.7539 66.1797 81.9805C66.0664 82.207 65.8984 82.3965 65.6758 82.5488C65.457 82.6973 65.1875 82.8105 64.8672 82.8887C64.5469 82.9629 64.1777 83 63.7598 83ZM67.1172 79.8945V79.7715C67.1172 79.3066 67.1836 78.8789 67.3164 78.4883C67.4492 78.0938 67.6426 77.752 67.8965 77.4629C68.1504 77.1738 68.4629 76.9492 68.834 76.7891C69.2051 76.625 69.6309 76.543 70.1113 76.543C70.5918 76.543 71.0195 76.625 71.3945 76.7891C71.7695 76.9492 72.084 77.1738 72.3379 77.4629C72.5957 77.752 72.791 78.0938 72.9238 78.4883C73.0566 78.8789 73.123 79.3066 73.123 79.7715V79.8945C73.123 80.3555 73.0566 80.7832 72.9238 81.1777C72.791 81.5684 72.5957 81.9102 72.3379 82.2031C72.084 82.4922 71.7715 82.7168 71.4004 82.877C71.0293 83.0371 70.6035 83.1172 70.123 83.1172C69.6426 83.1172 69.2148 83.0371 68.8398 82.877C68.4688 82.7168 68.1543 82.4922 67.8965 82.2031C67.6426 81.9102 67.4492 81.5684 67.3164 81.1777C67.1836 80.7832 67.1172 80.3555 67.1172 79.8945ZM68.8047 79.7715V79.8945C68.8047 80.1602 68.8281 80.4082 68.875 80.6387C68.9219 80.8691 68.9961 81.0723 69.0977 81.248C69.2031 81.4199 69.3398 81.5547 69.5078 81.6523C69.6758 81.75 69.8809 81.7988 70.123 81.7988C70.3574 81.7988 70.5586 81.75 70.7266 81.6523C70.8945 81.5547 71.0293 81.4199 71.1309 81.248C71.2324 81.0723 71.3066 80.8691 71.3535 80.6387C71.4043 80.4082 71.4297 80.1602 71.4297 79.8945V79.7715C71.4297 79.5137 71.4043 79.2715 71.3535 79.0449C71.3066 78.8145 71.2305 78.6113 71.125 78.4355C71.0234 78.2559 70.8887 78.1152 70.7207 78.0137C70.5527 77.9121 70.3496 77.8613 70.1113 77.8613C69.873 77.8613 69.6699 77.9121 69.502 78.0137C69.3379 78.1152 69.2031 78.2559 69.0977 78.4355C68.9961 78.6113 68.9219 78.8145 68.875 79.0449C68.8281 79.2715 68.8047 79.5137 68.8047 79.7715ZM74.8809 76.6602H76.5684L76.5156 78.7812C76.5 79.4609 76.4219 80.0449 76.2812 80.5332C76.1406 81.0215 75.9531 81.4316 75.7188 81.7637C75.4844 82.0957 75.2168 82.3613 74.916 82.5605C74.6191 82.7559 74.3066 82.9023 73.9785 83H73.6621L73.6445 81.6992L73.8203 81.6816C74.0195 81.4746 74.1836 81.2734 74.3125 81.0781C74.4414 80.8789 74.541 80.6699 74.6113 80.4512C74.6816 80.2324 74.7324 79.9883 74.7637 79.7188C74.7988 79.4492 74.8203 79.1367 74.8281 78.7812L74.8809 76.6602ZM75.3379 76.6602H79.5391V83H77.8574V78.0137H75.3379V76.6602ZM73.2754 81.6816H80.4473V84.9043H78.7598V83H75.0039V84.9043H73.2754V81.6816Z" fill="#161616"/>
</svg>
